<svg width="488" height="63" viewBox="0 0 488 63" fill="none" xmlns="http://www.w3.org/2000/svg">
<path d="M27.592 11.984C26.0133 11.1733 24.2853 10.4693 22.408 9.872C20.5307 9.27466 18.696 8.976 16.904 8.976C14.4293 8.976 12.4453 9.552 10.952 10.704C9.50133 11.856 8.776 13.392 8.776 15.312C8.776 16.7627 9.24533 18 10.184 19.024C11.1227 20.0053 12.36 20.8587 13.896 21.584C15.432 22.3093 17.032 22.992 18.696 23.632C20.1467 24.1867 21.576 24.8053 22.984 25.488C24.392 26.1707 25.6507 27.024 26.76 28.048C27.912 29.072 28.808 30.3307 29.448 31.824C30.1307 33.3173 30.472 35.1733 30.472 37.392C30.472 39.824 29.8533 42.0427 28.616 44.048C27.4213 46.0533 25.6933 47.632 23.432 48.784C21.1707 49.936 18.4827 50.512 15.368 50.512C13.32 50.512 11.3573 50.2773 9.48 49.808C7.64533 49.3387 5.93867 48.7413 4.36 48.016C2.78133 47.248 1.37333 46.4587 0.136 45.648L2.888 40.784C3.912 41.5093 5.08533 42.2133 6.408 42.896C7.73067 43.536 9.11733 44.0693 10.568 44.496C12.0187 44.88 13.4267 45.072 14.792 45.072C16.2427 45.072 17.672 44.816 19.08 44.304C20.5307 43.7493 21.7253 42.9173 22.664 41.808C23.6027 40.6987 24.072 39.2267 24.072 37.392C24.072 35.8133 23.6453 34.512 22.792 33.488C21.9813 32.4213 20.8933 31.5253 19.528 30.8C18.1627 30.032 16.712 29.3493 15.176 28.752C13.7253 28.1973 12.2533 27.6 10.76 26.96C9.26667 26.2773 7.88 25.4667 6.6 24.528C5.32 23.5467 4.296 22.352 3.528 20.944C2.76 19.536 2.376 17.8293 2.376 15.824C2.376 13.392 2.952 11.28 4.104 9.488C5.29867 7.65333 6.92 6.224 8.968 5.2C11.016 4.13333 13.3627 3.55733 16.008 3.472C18.9947 3.472 21.6187 3.83466 23.88 4.56C26.184 5.28533 28.2107 6.18133 29.96 7.248L27.592 11.984ZM50.442 50.64C47.9673 50.64 45.706 50.1067 43.658 49.04C41.6527 47.9733 40.0527 46.416 38.858 44.368C37.706 42.2773 37.13 39.7387 37.13 36.752C37.13 33.808 37.7487 31.2693 38.986 29.136C40.2233 26.96 41.866 25.296 43.914 24.144C46.0047 22.992 48.2873 22.416 50.762 22.416C53.2367 22.416 55.3273 22.992 57.034 24.144C58.7407 25.2533 60.042 26.576 60.938 28.112L60.554 29.136L61.13 23.504H66.634V50H60.682V43.088L61.322 44.624C61.1513 45.0507 60.7673 45.6053 60.17 46.288C59.6153 46.928 58.8473 47.5893 57.866 48.272C56.9273 48.9547 55.8393 49.5307 54.602 50C53.3647 50.4267 51.978 50.64 50.442 50.64ZM52.042 45.712C53.5353 45.712 54.8793 45.4347 56.074 44.88C57.2687 44.3253 58.25 43.5573 59.018 42.576C59.8287 41.552 60.3833 40.336 60.682 38.928V33.744C60.3407 32.464 59.7433 31.3547 58.89 30.416C58.0367 29.4347 57.0127 28.688 55.818 28.176C54.6233 27.6213 53.3007 27.344 51.85 27.344C50.2713 27.344 48.8207 27.728 47.498 28.496C46.1753 29.264 45.1087 30.3307 44.298 31.696C43.53 33.0613 43.146 34.6613 43.146 36.496C43.146 38.2027 43.5513 39.76 44.362 41.168C45.1727 42.576 46.2607 43.6853 47.626 44.496C48.9913 45.3067 50.4633 45.712 52.042 45.712ZM82.246 23.504L82.758 29.456L82.502 28.944C83.4833 26.9387 84.87 25.36 86.662 24.208C88.4967 23.056 90.5873 22.48 92.934 22.48C94.4273 22.48 95.75 22.7147 96.902 23.184C98.054 23.6533 98.9927 24.336 99.718 25.232C100.486 26.0853 100.977 27.152 101.19 28.432L100.87 28.624C101.894 26.704 103.302 25.2107 105.094 24.144C106.929 23.0347 108.849 22.48 110.854 22.48C113.457 22.48 115.505 23.2267 116.998 24.72C118.534 26.1707 119.323 28.0693 119.366 30.416V50H113.414V32.528C113.371 31.1627 113.03 30.032 112.39 29.136C111.793 28.1973 110.726 27.6853 109.19 27.6C107.654 27.6 106.267 28.0693 105.03 29.008C103.835 29.9467 102.897 31.1627 102.214 32.656C101.531 34.1067 101.169 35.6853 101.126 37.392V50H95.174V32.528C95.1313 31.1627 94.7687 30.032 94.086 29.136C93.446 28.1973 92.358 27.6853 90.822 27.6C89.2433 27.6 87.8567 28.0693 86.662 29.008C85.4673 29.9467 84.5287 31.1627 83.846 32.656C83.206 34.1493 82.886 35.7493 82.886 37.456V50H76.934V23.504H82.246ZM145.363 50.64C143.357 50.64 141.416 50.1707 139.539 49.232C137.704 48.2933 136.275 47.0347 135.251 45.456L135.635 43.6V62.736H129.747V23.12H134.867L135.699 29.904L135.059 28.048C136.339 26.4267 137.96 25.0827 139.923 24.016C141.885 22.9493 144.083 22.416 146.515 22.416C148.989 22.416 151.208 23.0133 153.171 24.208C155.176 25.4027 156.755 27.0667 157.907 29.2C159.059 31.3333 159.635 33.8293 159.635 36.688C159.635 39.5467 159.016 42.0213 157.779 44.112C156.541 46.2027 154.835 47.824 152.659 48.976C150.525 50.0853 148.093 50.64 145.363 50.64ZM144.211 45.904C145.917 45.904 147.475 45.52 148.883 44.752C150.333 43.9413 151.485 42.8533 152.339 41.488C153.192 40.08 153.619 38.5013 153.619 36.752C153.619 34.96 153.213 33.3813 152.403 32.016C151.592 30.608 150.504 29.4987 149.139 28.688C147.816 27.8773 146.323 27.472 144.659 27.472C143.123 27.472 141.736 27.7707 140.499 28.368C139.261 28.9653 138.237 29.7973 137.427 30.864C136.616 31.888 136.04 33.0827 135.699 34.448V38.864C135.912 40.2293 136.424 41.4453 137.235 42.512C138.045 43.5787 139.048 44.4107 140.243 45.008C141.48 45.6053 142.803 45.904 144.211 45.904ZM167.684 0.463997H173.636V50H167.684V0.463997ZM196.222 50.64C193.193 50.64 190.59 50.0427 188.414 48.848C186.238 47.6107 184.553 45.9467 183.358 43.856C182.206 41.7227 181.63 39.2907 181.63 36.56C181.63 33.9573 182.291 31.5893 183.614 29.456C184.937 27.3227 186.707 25.616 188.926 24.336C191.145 23.056 193.619 22.416 196.35 22.416C199.849 22.416 202.75 23.44 205.054 25.488C207.358 27.536 208.915 30.352 209.726 33.936L187.902 41.616L186.494 38.096L204.414 31.568L203.134 32.4C202.622 30.992 201.769 29.776 200.574 28.752C199.379 27.6853 197.822 27.152 195.902 27.152C194.281 27.152 192.83 27.5573 191.55 28.368C190.27 29.136 189.267 30.2027 188.542 31.568C187.817 32.9333 187.454 34.4907 187.454 36.24C187.454 38.0747 187.838 39.696 188.606 41.104C189.374 42.4693 190.419 43.5573 191.742 44.368C193.107 45.136 194.643 45.52 196.35 45.52C197.502 45.52 198.611 45.3067 199.678 44.88C200.787 44.4533 201.811 43.8987 202.75 43.216L205.502 47.632C204.179 48.528 202.686 49.2533 201.022 49.808C199.401 50.3627 197.801 50.64 196.222 50.64ZM269.37 43.984H285.242V50H261.114L269.37 43.984ZM236.026 26.896C236.026 23.696 236.623 20.688 237.818 17.872C239.055 15.0133 240.762 12.496 242.938 10.32C245.114 8.10133 247.61 6.37333 250.426 5.136C253.285 3.856 256.357 3.216 259.642 3.216C262.885 3.216 265.914 3.856 268.73 5.136C271.589 6.37333 274.106 8.10133 276.282 10.32C278.501 12.496 280.229 15.0133 281.466 17.872C282.703 20.688 283.322 23.696 283.322 26.896C283.322 30.1813 282.703 33.2533 281.466 36.112C280.229 38.9707 278.501 41.488 276.282 43.664C274.106 45.7973 271.589 47.4827 268.73 48.72C265.914 49.9147 262.885 50.512 259.642 50.512C256.357 50.512 253.285 49.9147 250.426 48.72C247.61 47.5253 245.114 45.8613 242.938 43.728C240.762 41.5947 239.055 39.0987 237.818 36.24C236.623 33.3813 236.026 30.2667 236.026 26.896ZM242.426 26.96C242.426 29.392 242.874 31.6747 243.77 33.808C244.666 35.8987 245.903 37.7547 247.482 39.376C249.061 40.9973 250.895 42.256 252.986 43.152C255.077 44.048 257.338 44.496 259.77 44.496C262.159 44.496 264.399 44.048 266.49 43.152C268.581 42.256 270.394 40.9973 271.93 39.376C273.466 37.7547 274.682 35.8987 275.578 33.808C276.474 31.6747 276.922 29.3707 276.922 26.896C276.922 24.5067 276.474 22.2453 275.578 20.112C274.682 17.9787 273.445 16.1227 271.866 14.544C270.287 12.9227 268.453 11.664 266.362 10.768C264.271 9.82933 262.031 9.36 259.642 9.36C257.21 9.36 254.949 9.82933 252.858 10.768C250.767 11.664 248.933 12.9227 247.354 14.544C245.775 16.1653 244.559 18.0427 243.706 20.176C242.853 22.3093 242.426 24.5707 242.426 26.96ZM302.568 51.024C300.179 51.024 298.195 50.2987 296.616 48.848C295.08 47.3547 294.269 45.4347 294.184 43.088V23.504H300.136V40.976C300.221 42.4267 300.627 43.6 301.352 44.496C302.12 45.392 303.315 45.8613 304.936 45.904C306.429 45.904 307.752 45.4773 308.904 44.624C310.099 43.728 311.059 42.5333 311.784 41.04C312.509 39.504 312.872 37.776 312.872 35.856V23.504H318.824V50H313.384L312.872 43.472L313.192 44.624C312.68 45.8613 311.891 46.9707 310.824 47.952C309.8 48.8907 308.584 49.6373 307.176 50.192C305.768 50.7467 304.232 51.024 302.568 51.024ZM341.41 50.64C338.38 50.64 335.778 50.0427 333.602 48.848C331.426 47.6107 329.74 45.9467 328.546 43.856C327.394 41.7227 326.818 39.2907 326.818 36.56C326.818 33.9573 327.479 31.5893 328.802 29.456C330.124 27.3227 331.895 25.616 334.114 24.336C336.332 23.056 338.807 22.416 341.538 22.416C345.036 22.416 347.938 23.44 350.242 25.488C352.546 27.536 354.103 30.352 354.914 33.936L333.09 41.616L331.682 38.096L349.602 31.568L348.322 32.4C347.81 30.992 346.956 29.776 345.762 28.752C344.567 27.6853 343.01 27.152 341.09 27.152C339.468 27.152 338.018 27.5573 336.738 28.368C335.458 29.136 334.455 30.2027 333.73 31.568C333.004 32.9333 332.642 34.4907 332.642 36.24C332.642 38.0747 333.026 39.696 333.794 41.104C334.562 42.4693 335.607 43.5573 336.93 44.368C338.295 45.136 339.831 45.52 341.538 45.52C342.69 45.52 343.799 45.3067 344.866 44.88C345.975 44.4533 346.999 43.8987 347.938 43.216L350.69 47.632C349.367 48.528 347.874 49.2533 346.21 49.808C344.588 50.3627 342.988 50.64 341.41 50.64ZM369.796 50.512C367.918 50.512 366.084 50.192 364.292 49.552C362.542 48.8693 361.092 47.8667 359.94 46.544L362.436 43.088C363.545 44.1547 364.676 44.9653 365.828 45.52C367.022 46.032 368.196 46.288 369.348 46.288C370.201 46.288 370.99 46.1813 371.716 45.968C372.441 45.7547 373.017 45.4133 373.444 44.944C373.913 44.432 374.148 43.7493 374.148 42.896C374.148 41.9573 373.828 41.2107 373.188 40.656C372.59 40.1013 371.801 39.6533 370.82 39.312C369.881 38.9707 368.878 38.6507 367.812 38.352C365.636 37.6267 363.972 36.624 362.82 35.344C361.668 34.064 361.092 32.5067 361.092 30.672C361.092 29.264 361.433 27.9627 362.116 26.768C362.841 25.5307 363.886 24.528 365.252 23.76C366.66 22.992 368.388 22.608 370.436 22.608C372.27 22.608 373.913 22.8427 375.364 23.312C376.814 23.7387 378.18 24.464 379.46 25.488L377.092 29.2C376.324 28.3893 375.406 27.792 374.34 27.408C373.273 27.024 372.313 26.8107 371.46 26.768C370.734 26.7253 370.03 26.832 369.348 27.088C368.708 27.344 368.174 27.7067 367.748 28.176C367.321 28.6453 367.108 29.2 367.108 29.84C367.108 30.736 367.406 31.4613 368.004 32.016C368.601 32.5707 369.369 33.0187 370.308 33.36C371.289 33.6587 372.249 33.9787 373.188 34.32C374.51 34.704 375.684 35.216 376.708 35.856C377.732 36.496 378.542 37.2853 379.14 38.224C379.78 39.1627 380.1 40.336 380.1 41.744C380.1 43.3227 379.716 44.7947 378.948 46.16C378.222 47.4827 377.092 48.5493 375.556 49.36C374.062 50.128 372.142 50.512 369.796 50.512ZM390.994 11.856H396.946V23.632H404.242V28.304H396.946V50H390.994V28.304H386.13V23.632H390.994V11.856ZM411.434 23.504H417.386V50H411.434V23.504ZM410.986 13.904C410.986 12.9653 411.349 12.176 412.074 11.536C412.842 10.896 413.674 10.576 414.57 10.576C415.466 10.576 416.255 10.896 416.938 11.536C417.663 12.176 418.026 12.9653 418.026 13.904C418.026 14.8853 417.663 15.696 416.938 16.336C416.255 16.9333 415.466 17.232 414.57 17.232C413.674 17.232 412.842 16.912 412.074 16.272C411.349 15.632 410.986 14.8427 410.986 13.904ZM425.38 36.496C425.38 33.8507 425.999 31.4613 427.236 29.328C428.516 27.1947 430.265 25.5093 432.484 24.272C434.703 23.0347 437.22 22.416 440.036 22.416C442.937 22.416 445.476 23.0347 447.652 24.272C449.828 25.5093 451.513 27.1947 452.708 29.328C453.903 31.4613 454.5 33.8507 454.5 36.496C454.5 39.1413 453.903 41.552 452.708 43.728C451.513 45.8613 449.807 47.5467 447.588 48.784C445.412 50.0213 442.873 50.64 439.972 50.64C437.156 50.64 434.639 50.064 432.42 48.912C430.244 47.7173 428.516 46.0747 427.236 43.984C425.999 41.8507 425.38 39.3547 425.38 36.496ZM431.332 36.56C431.332 38.2667 431.716 39.824 432.484 41.232C433.252 42.5973 434.276 43.6853 435.556 44.496C436.879 45.3067 438.329 45.712 439.908 45.712C441.572 45.712 443.044 45.3067 444.324 44.496C445.647 43.6853 446.671 42.5973 447.396 41.232C448.121 39.824 448.484 38.2667 448.484 36.56C448.484 34.8533 448.121 33.3173 447.396 31.952C446.671 30.544 445.647 29.4347 444.324 28.624C443.044 27.7707 441.572 27.344 439.908 27.344C438.287 27.344 436.815 27.7707 435.492 28.624C434.212 29.4773 433.188 30.608 432.42 32.016C431.695 33.3813 431.332 34.896 431.332 36.56ZM467.871 23.504L468.383 29.968L468.127 28.944C468.98 26.9813 470.367 25.424 472.287 24.272C474.207 23.0773 476.426 22.48 478.943 22.48C481.46 22.48 483.508 23.2267 485.087 24.72C486.708 26.1707 487.54 28.0693 487.583 30.416V50H481.567V32.528C481.524 31.0773 481.098 29.904 480.287 29.008C479.519 28.0693 478.303 27.6 476.639 27.6C475.103 27.6 473.716 28.0267 472.479 28.88C471.242 29.7333 470.26 30.9067 469.535 32.4C468.852 33.8933 468.511 35.6213 468.511 37.584V50H462.559V23.504H467.871Z" fill="white"/>
</svg>
